<?xml version="1.0" encoding="UTF-8" standalone="no"?><!DOCTYPE svg PUBLIC "-//W3C//DTD SVG 1.1//EN" "http://www.w3.org/Graphics/SVG/1.1/DTD/svg11.dtd"><svg width="100%" height="100%" viewBox="0 0 139 226" version="1.1" xmlns="http://www.w3.org/2000/svg" xmlns:xlink="http://www.w3.org/1999/xlink" xml:space="preserve" xmlns:serif="http://www.serif.com/" style="fill-rule:evenodd;clip-rule:evenodd;stroke-linejoin:round;stroke-miterlimit:1.41421;"><rect id="Artboard1" x="0" y="0" width="138.667" height="225.333" style="fill:none;"/><clipPath id="_clip1"><rect id="Artboard11" serif:id="Artboard1" x="0" y="0" width="138.667" height="225.333"/></clipPath><g clip-path="url(#_clip1)"><path d="M44.955,191.382c-1.232,-0.923 -28.724,-13.869 -28.724,-13.869c-12.24,4.039 -14.986,31.524 -16.231,47.712l29.241,0l15.714,-33.843Z" style="fill:#9f2025;"/><path d="M93.682,191.382c1.231,-0.923 28.724,-13.869 28.724,-13.869c12.24,4.039 14.986,31.524 16.231,47.712l-29.244,0l-15.711,-33.843Z" style="fill:#9f2025;"/><path d="M69.319,147.389l-12.907,0l0,8.148c0.008,5.063 -0.834,4.012 -5.564,6.644c0,0 -4.562,3.74 -5.953,4.183c5.737,18.462 9.883,42.206 21.094,58.861l6.659,0c11.209,-16.655 15.357,-40.399 21.092,-58.861c-1.389,-0.443 -5.951,-4.183 -5.951,-4.183c-4.73,-2.632 -5.572,-1.581 -5.564,-6.644l0,-8.148l-12.906,0Z" style="fill:#f5b67e;"/><path d="M61.322,180.379c-11.357,-4.17 -12.781,-16.346 -10.48,-18.132c-6.879,3.135 -31.964,12.962 -34.771,15.396c2.279,4.988 5.735,25.517 8.723,47.581l89.049,0c2.989,-22.064 6.444,-42.593 8.724,-47.581c-2.81,-2.434 -27.893,-12.261 -34.771,-15.396c2.301,1.786 0.877,13.962 -10.48,18.132l0,0.002l-7.999,13.354l-7.995,-13.354l0,-0.002Z" style="fill:#841b21;"/><path d="M103.849,88.444c-1.847,9.613 4.378,17.622 13.909,19.35c9.526,1.722 18.742,-3.49 20.585,-13.107c1.845,-9.616 -4.378,-18.809 -13.904,-20.533c-9.526,-1.728 -18.745,4.668 -20.59,14.29" style="fill:#f6c085;"/><path d="M37.371,88.444c1.847,9.613 -4.378,17.622 -13.907,19.35c-9.528,1.722 -18.742,-3.49 -20.587,-13.107c-1.847,-9.616 4.378,-18.809 13.904,-20.533c9.528,-1.728 18.745,4.668 20.59,14.29" style="fill:#f6c085;"/><path d="M118.155,27.413c-9.302,-12.637 -23.81,-20.937 -39.212,-21.55c-0.003,0 -0.304,-0.01 -0.797,-0.032l0.016,-0.602c0,0 -3.733,0.149 -7.588,0.301c-3.855,-0.152 -7.59,-0.301 -7.59,-0.301l0.016,0.602c-0.496,0.022 -0.797,0.032 -0.797,0.032c-15.402,0.613 -29.908,8.913 -39.21,21.55c-9.31,12.65 -10.547,28.583 -9.814,43.838c1.888,39.202 5.391,83.109 57.561,83.546c52.326,0.437 55.344,-44.622 57.229,-83.546c0.731,-15.255 -0.504,-31.188 -9.814,-43.838" style="fill:#f8c997;"/><path d="M85.903,121.942c-2.725,15.327 -27.428,15.327 -30.153,0c7.369,1.696 21.144,1.704 30.153,0" style="fill:#d6825b;"/><path d="M16.054,83.117c0.69,-14.45 0.874,-40.582 13.527,-40.582c9.371,0 11.915,2.156 40.378,2.156c25.189,0 32.51,-2.874 41.934,-2.874c10.102,0 12.608,13.616 12.802,32.494c0.038,3.89 0.307,7.783 0.528,11.664c0.131,2.277 0.296,4.554 0.414,6.831c0.042,0.928 0.285,3.402 1.482,3.167c1.344,-0.259 1.496,-5.268 1.632,-6.337c0.965,-7.532 1.221,-15.253 1.215,-22.832c-0.016,-13.994 4.018,-40.946 -21.096,-57.734c-15.442,-10.328 -47.371,-11.354 -65.143,-5.51c-12.381,4.076 -24.247,14.687 -28.662,27.047c-4.845,13.575 -4.719,24.181 -3.122,51.065c0.173,2.914 0.509,5.836 0.914,8.726c0.261,1.923 0.509,3.893 0.973,5.778c1.013,4.111 2.418,1.178 2.373,-1.379c-0.064,-3.905 -0.336,-7.774 -0.149,-11.68" style="fill:#59341a;"/><path d="M46.646,122.637c-2.301,0.405 -4.407,0.69 -6.615,0.69c-7.795,0 -14.399,-2.991 -18.769,-8.2c-1.509,-1.803 -2.607,-5.247 -2.874,-7.361c-0.25,-1.989 -1.327,-6.975 -1.495,-8.678c-0.973,-9.814 -3.053,-2.736 -3.154,4.849c-0.024,1.746 0.48,3.642 0.904,5.54c-0.339,3.33 -1.152,11.88 -0.931,14.767c2.205,28.711 39.154,36.245 57.307,38.912c8.867,-1.301 33.39,-7.223 39.114,-11.182c14.652,-10.136 19.385,-21.587 17.265,-42.497c0.424,-1.898 0.928,-3.794 0.904,-5.54c-0.104,-7.585 -2.184,-14.663 -3.154,-4.849c-0.168,1.703 -1.248,6.689 -1.498,8.678c-0.267,2.114 -1.363,5.558 -2.874,7.361c-4.37,5.209 -10.971,8.2 -18.767,8.2c-2.21,0 -4.316,-0.285 -6.614,-0.69c0.999,1.727 1.549,3.591 1.549,5.537c0,7.292 -7.681,13.458 -18.255,15.506c-0.664,-0.227 -1.354,-0.563 -2.082,-1.042c-2.573,-1.699 -4.388,-4.016 -5.308,-5.365c-0.92,1.349 -2.735,3.666 -5.308,5.365c-0.803,0.527 -1.557,0.885 -2.285,1.109c-10.755,-1.976 -18.609,-8.201 -18.609,-15.573c0,-1.946 0.546,-3.81 1.549,-5.537" style="fill:#402412;"/><path d="M71.02,110.549c-5.903,-4.793 -20.129,7.225 -23.152,8.518c-9.001,3.845 -14.541,-3.847 -14.541,-3.847c0,0 1.154,5.46 5.463,10.307c7.705,8.668 23.96,6.354 32.23,-1.077c8.27,7.431 24.525,9.745 32.23,1.077c4.308,-4.847 5.46,-10.307 5.46,-10.307c0,0 -5.538,7.692 -14.536,3.847c-3.026,-1.293 -17.252,-13.311 -23.154,-8.518" style="fill:#5d331a;"/><path d="M40.942,101.157c2.458,0 4.463,-2.005 4.463,-4.463c0,-2.456 -2.005,-4.461 -4.463,-4.461c-2.459,0 -4.461,2.005 -4.461,4.461c0,2.458 2.002,4.463 4.461,4.463" style="fill:#3e3b3a;"/><path d="M100.205,101.157c2.458,0 4.461,-2.005 4.461,-4.463c0,-2.456 -2.003,-4.461 -4.461,-4.461c-2.455,0 -4.46,2.005 -4.46,4.461c0,2.458 2.005,4.463 4.46,4.463" style="fill:#3e3b3a;"/><path d="M26.747,83.087c-1.482,-2.447 6.228,-3.735 14.069,-3.801c13.146,-0.112 20.278,6.204 13.957,6.028c-4.722,-0.131 -27.591,-1.509 -28.026,-2.227" style="fill:#59341a;"/><path d="M114.411,82.734c1.45,-2.466 -6.278,-3.655 -14.117,-3.618c-13.146,0.059 -20.195,6.466 -13.876,6.21c4.718,-0.195 27.569,-1.869 27.993,-2.592" style="fill:#59341a;"/><path d="M64.807,107.697c-0.043,-0.014 -0.051,-0.051 -0.014,-0.112c0,-0.187 0.107,-0.365 0.302,-0.536c1.517,-2.919 4.497,-11.429 5.862,-20.793c1.499,0.094 -1.482,15.935 -2.767,19.716c1.298,-0.227 2.882,-0.36 4.588,-0.36c4.41,0 7.985,0.882 7.985,1.973c0,1.09 -3.575,1.973 -7.985,1.973c-4.257,0 -7.737,-0.824 -7.971,-1.861" style="fill:#e5b17d;"/></g></svg>