<?xml version="1.0" encoding="UTF-8" standalone="no"?><!DOCTYPE svg PUBLIC "-//W3C//DTD SVG 1.1//EN" "http://www.w3.org/Graphics/SVG/1.1/DTD/svg11.dtd"><svg width="100%" height="100%" viewBox="0 0 139 226" version="1.1" xmlns="http://www.w3.org/2000/svg" xmlns:xlink="http://www.w3.org/1999/xlink" xml:space="preserve" xmlns:serif="http://www.serif.com/" style="fill-rule:evenodd;clip-rule:evenodd;stroke-linejoin:round;stroke-miterlimit:1.41421;"><rect id="Artboard1" x="0" y="0" width="138.667" height="225.333" style="fill:none;"/><clipPath id="_clip1"><rect id="Artboard11" serif:id="Artboard1" x="0" y="0" width="138.667" height="225.333"/></clipPath><g clip-path="url(#_clip1)"><path d="M45.033,191.599c-1.225,-0.92 -28.632,-13.825 -28.632,-13.825c-12.201,4.026 -14.938,31.423 -16.179,47.559l29.15,0l15.661,-33.734Z" style="fill:#9b5538;"/><path d="M93.604,191.599c1.227,-0.92 28.632,-13.825 28.632,-13.825c12.2,4.026 14.938,31.423 16.179,47.559l-29.151,0l-15.66,-33.734Z" style="fill:#9b5538;"/><path d="M69.318,147.747l-12.865,0l0,8.121c0.008,5.047 -0.831,4 -5.546,6.623c0,0 -4.547,3.728 -5.931,4.169c5.716,18.406 9.848,42.072 21.023,58.673l6.639,0c11.175,-16.601 15.307,-40.267 21.023,-58.673c-1.384,-0.441 -5.931,-4.169 -5.931,-4.169c-4.715,-2.623 -5.555,-1.576 -5.547,-6.623l0,-8.121l-12.865,0Z" style="fill:#f5b67e;"/><path d="M50.901,162.557c-6.856,3.125 -31.861,12.921 -34.659,15.347c2.272,4.972 5.716,25.435 8.695,47.429l88.761,0c2.982,-21.994 6.426,-42.457 8.699,-47.429c-2.801,-2.426 -27.803,-12.222 -34.66,-15.347c8.778,6.811 -13.657,25.751 -18.419,31.388l-9.503,-10.553c-0.726,-1.884 -17.208,-14.401 -8.914,-20.835" style="fill:#a95c40;"/><path d="M67.248,193.006l2.07,1.02l2.071,-1.02l0,32.326l-4.141,0l0,-32.326Z" style="fill:#934d33;"/><path d="M103.739,88.99c-1.842,9.586 4.363,17.566 13.864,19.288c9.495,1.717 18.682,-3.478 20.519,-13.064c1.839,-9.583 -4.361,-18.752 -13.859,-20.468c-9.496,-1.722 -18.685,4.656 -20.524,14.244" style="fill:#f6c085;"/><path d="M37.473,88.99c1.841,9.586 -4.361,17.566 -13.862,19.288c-9.498,1.717 -18.682,-3.478 -20.521,-13.064c-1.842,-9.583 4.363,-18.752 13.859,-20.468c9.498,-1.722 18.685,4.656 20.524,14.244" style="fill:#f6c085;"/><path d="M117.999,28.155c-9.272,-12.597 -23.732,-20.87 -39.084,-21.479c-0.006,0 -0.303,-0.013 -0.798,-0.034l0.016,-0.598c0,0 -3.72,0.146 -7.563,0.3c-3.843,-0.154 -7.566,-0.3 -7.566,-0.3l0.016,0.598c-0.494,0.021 -0.792,0.034 -0.792,0.034c-15.355,0.609 -29.815,8.882 -39.087,21.479c-9.28,12.61 -10.513,28.491 -9.782,43.697c1.882,39.076 5.376,82.843 57.376,83.279c52.159,0.436 55.167,-44.479 57.046,-83.279c0.728,-15.206 -0.502,-31.087 -9.782,-43.697" style="fill:#f8c997;"/><path d="M126.446,92.375c0,-1.515 8.161,-41.92 6.202,-59.109c-1.958,-17.189 -13.218,-18.002 -15.663,-18.345c-2.448,-0.345 -3.673,-1.06 -3.673,-1.06c0,0 -10.034,-7.882 -30.107,-12.833c-20.069,-4.951 -48.454,10.056 -63.953,1.552c-7.446,7.842 -3.112,23.027 -3.112,23.027c0,0 -5.629,2.081 -7.096,9.79c-1.469,7.707 5.717,57.299 5.717,57.299c0,0 3.096,-38.236 7.744,-43.612c0,0 33.11,6.059 92.947,-16.618c12.137,-4.6 7.948,45.399 10.994,59.909" style="fill:#bf9141;"/><path d="M41.509,98.941c2.451,0 4.449,-1.996 4.449,-4.446c0,-2.45 -1.998,-4.449 -4.449,-4.449c-2.45,0 -4.446,1.999 -4.446,4.449c0,2.45 1.996,4.446 4.446,4.446" style="fill:#3e3b3a;"/><path d="M99.63,98.941c2.45,0 4.446,-1.998 4.446,-4.446c0,-2.45 -1.996,-4.449 -4.446,-4.449c-2.448,0 -4.446,1.999 -4.446,4.449c0,2.448 1.998,4.446 4.446,4.446" style="fill:#3e3b3a;"/><path d="M27.383,80.702c-1.438,-2.464 6.266,-3.625 14.08,-3.569c13.104,0.096 20.114,6.5 13.816,6.227c-4.704,-0.205 -27.476,-1.938 -27.896,-2.658" style="fill:#bf9141;"/><path d="M113.744,81.261c1.486,-2.434 -6.195,-3.75 -14.008,-3.846c-13.104,-0.164 -20.239,6.099 -13.938,5.951c4.709,-0.112 27.51,-1.393 27.946,-2.105" style="fill:#bf9141;"/><path d="M87.445,124.784c-2.716,15.279 -27.338,15.279 -30.054,0c8.162,10.896 21.893,10.896 30.054,0" style="fill:#d6825b;"/><path d="M62.379,116.871c-0.053,-0.018 -0.061,-0.061 -0.016,-0.135c0,-0.223 0.127,-0.441 0.361,-0.646c1.829,-3.518 5.422,-13.774 7.069,-25.058c1.805,0.112 -1.791,19.204 -3.338,23.759c1.566,-0.272 3.471,-0.431 5.531,-0.431c5.315,0 9.623,1.066 9.623,2.376c0,1.313 -4.308,2.378 -9.623,2.378c-5.132,0 -9.325,-0.994 -9.607,-2.243" style="fill:#e5b17d;"/><path d="M44.829,177.714c10.077,12.783 25.052,17.173 24.489,16.23c-0.564,-0.941 -14.752,-20.37 -15.826,-25.738c-1.073,-5.369 2.198,-8.353 2.198,-8.353c1.103,-1.307 0.765,-4.201 0.765,-6.123c-14.882,-0.388 -21.704,11.199 -11.626,23.984" style="fill:#d97b5a;"/><path d="M93.808,177.714c-10.078,12.783 -25.053,17.173 -24.489,16.23c0.563,-0.941 14.752,-20.37 15.825,-25.738c1.074,-5.369 -2.195,-8.353 -2.195,-8.353c-1.105,-1.307 -0.765,-4.201 -0.765,-6.123c14.879,-0.388 21.704,11.199 11.624,23.984" style="fill:#d97b5a;"/></g></svg>