<?xml version="1.0" encoding="UTF-8" standalone="no"?><!DOCTYPE svg PUBLIC "-//W3C//DTD SVG 1.1//EN" "http://www.w3.org/Graphics/SVG/1.1/DTD/svg11.dtd"><svg width="100%" height="100%" viewBox="0 0 139 226" version="1.1" xmlns="http://www.w3.org/2000/svg" xmlns:xlink="http://www.w3.org/1999/xlink" xml:space="preserve" xmlns:serif="http://www.serif.com/" style="fill-rule:evenodd;clip-rule:evenodd;stroke-linejoin:round;stroke-miterlimit:1.41421;"><rect id="Artboard1" x="0" y="0" width="138.667" height="225.333" style="fill:none;"/><clipPath id="_clip1"><rect id="Artboard11" serif:id="Artboard1" x="0" y="0" width="138.667" height="225.333"/></clipPath><g clip-path="url(#_clip1)"><g><path d="M50.062,189.41c-1.165,-0.873 -27.159,-13.113 -27.159,-13.113c-11.573,3.819 -14.169,29.805 -15.347,45.111l27.651,0l14.855,-31.998Z" style="fill:#e7a123;"/><path d="M96.133,189.41c1.165,-0.873 27.159,-13.113 27.159,-13.113c11.573,3.819 14.169,29.805 15.346,45.111l-27.65,0l-14.855,-31.998Z" style="fill:#e7a123;"/><path d="M73.097,147.814l-12.203,0l0,7.704c0.008,4.787 -0.789,3.793 -5.261,6.281c0,0 -4.313,3.537 -5.626,3.955c5.422,17.459 9.342,39.907 19.942,55.654l6.297,0c10.6,-15.747 14.519,-38.195 19.942,-55.654c-1.314,-0.418 -5.627,-3.955 -5.627,-3.955c-4.472,-2.488 -5.268,-1.494 -5.261,-6.281l0,-7.704l-12.203,0Z" style="fill:#f5b67e;"/><path d="M55.627,161.862c-6.503,2.965 -30.219,12.256 -32.876,14.558c2.156,4.716 5.423,24.126 8.248,44.988l84.197,0c2.826,-20.862 6.092,-40.272 8.248,-44.988c-2.657,-2.302 -26.373,-11.593 -32.876,-14.558c4.088,26.08 -39.755,22.881 -34.941,0" style="fill:#f3ab1c;"/><path d="M105.747,90.53c-1.747,9.089 4.139,16.662 13.15,18.295c9.007,1.629 17.722,-3.299 19.463,-12.392c1.745,-9.092 -4.139,-17.786 -13.145,-19.415c-9.007,-1.633 -17.724,4.414 -19.468,13.512" style="fill:#f6c085;"/><path d="M42.891,90.53c1.747,9.089 -4.139,16.662 -13.149,18.295c-9.009,1.629 -17.723,-3.299 -19.465,-12.392c-1.747,-9.092 4.139,-17.786 13.146,-19.415c9.009,-1.633 17.723,4.414 19.468,13.512" style="fill:#f6c085;"/><path d="M119.273,34.376c-8.795,-11.949 -22.51,-19.796 -37.075,-20.373c-0.003,0 -0.285,-0.013 -0.757,-0.033l0.018,-0.567c0,0 -3.529,0.139 -7.174,0.285c-3.648,-0.146 -7.177,-0.285 -7.177,-0.285l0.015,0.567c-0.469,0.02 -0.751,0.033 -0.751,0.033c-14.565,0.577 -28.28,8.424 -37.075,20.373c-8.803,11.961 -9.973,27.025 -9.279,41.449c1.784,37.065 5.099,78.58 54.423,78.993c49.475,0.414 52.329,-42.19 54.111,-78.993c0.691,-14.424 -0.476,-29.488 -9.279,-41.449" style="fill:#f8c997;"/><path d="M84.551,117.456c0.179,0.792 0.275,1.619 0.275,2.466c0,6.09 -4.891,11.028 -10.925,11.028c-6.033,0 -10.925,-4.938 -10.925,-11.028c0,-0.847 0.095,-1.674 0.274,-2.466l21.301,0Z" style="fill:#d6825b;"/><path d="M22.736,87.045c0.653,-13.663 0.827,-38.372 12.79,-38.372c0.305,0 36.337,-14.93 77.827,-14.93c9.551,0 11.918,27.126 12.105,44.975c0.035,3.678 0.289,7.359 0.499,11.029c0.123,2.155 0.279,4.305 0.388,6.458c0.043,0.877 0.272,3.219 1.401,2.997c1.271,-0.247 1.417,-4.983 1.546,-5.994c0.91,-7.121 1.152,-14.421 1.147,-21.588c-0.01,-9.788 -0.255,-24.968 -8.778,-39.314c-2.999,-5.049 -4.986,-11.142 -11.167,-15.273c-14.6,-9.766 -44.065,-5.498 -60.866,0.027c-11.707,3.852 -23.653,8.649 -27.827,20.338c-4.58,12.833 -4.462,22.861 -2.955,48.28c0.164,2.758 0.484,5.518 0.868,8.251c0.247,1.817 0.481,3.683 0.917,5.462c0.958,3.887 2.289,1.115 2.246,-1.303c-0.06,-3.693 -0.317,-7.348 -0.141,-11.043" style="fill:#a74125;"/><path d="M116.816,21.786c-1.591,-36.552 -72.462,-5.952 -81.497,-4.298c-22.528,4.119 -31.719,-10.381 -31.719,-10.381c-14.456,41.248 15.082,75.739 80.347,32.49c11.979,-7.938 26.237,-2.747 26.237,-2.747c11.603,15.134 16.579,17.63 18.956,38.459c0,0 1.732,-14.517 4.754,-29.627c3.159,-15.795 -3.96,-25.681 -17.078,-23.896" style="fill:#a74125;"/><path d="M20.632,99.392c0,1.601 6.506,32.445 10.966,38.263c4.459,5.818 19.596,14.547 22.127,15.127c1.996,0.459 15.243,2.637 20.751,3.539c5.513,-0.902 18.757,-3.08 20.753,-3.539c2.531,-0.58 17.958,-10.035 22.128,-15.127c4.169,-5.09 13.075,-42.48 10.675,-40.083c-9.022,18.029 -10.385,44.01 -46.737,44.01c-1.793,0 -5.372,-2.79 -6.819,-3.98c-1.444,1.19 -5.024,3.98 -6.816,3.98c-36.352,0 -38.008,-24.164 -47.028,-42.19" style="fill:#a74125;"/><path d="M42.249,120.866c10.118,5.632 30.005,1.399 31.966,-2.46c1.958,3.859 21.845,8.092 31.963,2.46c-15.916,-3.168 -24.018,-10.443 -31.963,-7.98c-7.948,-2.463 -16.047,4.812 -31.966,7.98" style="fill:#a74125;"/><path d="M36.637,169.999c0.29,1.018 2.125,51.408 2.125,51.408l10.111,0l-3.683,-55.124l-8.553,3.716Z" style="fill:#ed8322;"/><path d="M109.947,169.999c-0.29,1.018 -2.125,51.408 -2.125,51.408l-10.111,0l3.683,-55.124l8.553,3.716Z" style="fill:#ed8322;"/><path d="M46.72,98.03c2.324,0 4.217,-1.893 4.217,-4.217c0,-2.324 -1.893,-4.22 -4.217,-4.22c-2.324,0 -4.22,1.896 -4.22,4.22c0,2.324 1.896,4.217 4.22,4.217" style="fill:#3e3b3a;"/><path d="M101.85,98.03c2.321,0 4.217,-1.893 4.217,-4.217c0,-2.324 -1.896,-4.22 -4.217,-4.22c-2.325,0 -4.218,1.896 -4.218,4.22c0,2.324 1.893,4.217 4.218,4.217" style="fill:#3e3b3a;"/><path d="M33.32,80.875c-1.363,-2.337 5.944,-3.438 13.355,-3.385c12.43,0.091 19.08,6.166 13.108,5.906c-4.464,-0.194 -26.064,-1.838 -26.463,-2.521" style="fill:#ed7f22;"/><path d="M115.237,81.406c1.412,-2.309 -5.876,-3.554 -13.287,-3.648c-12.43,-0.156 -19.198,5.785 -13.219,5.644c4.464,-0.106 26.093,-1.318 26.506,-1.996" style="fill:#ed7f22;"/><path d="M65.241,110.003c-0.05,-0.015 -0.058,-0.058 -0.015,-0.129c0,-0.211 0.121,-0.418 0.345,-0.612c1.732,-3.338 5.14,-13.065 6.703,-23.768c1.712,0.105 -1.699,18.215 -3.166,22.535c1.485,-0.257 3.295,-0.408 5.246,-0.408c5.041,0 9.127,1.011 9.127,2.253c0,1.246 -4.086,2.257 -9.127,2.257c-4.868,0 -8.843,-0.943 -9.113,-2.128" style="fill:#e5b17d;"/></g></g></svg>