<?xml version="1.0" encoding="UTF-8" standalone="no"?>
<!DOCTYPE svg PUBLIC "-//W3C//DTD SVG 1.1//EN" "http://www.w3.org/Graphics/SVG/1.1/DTD/svg11.dtd">
<svg width="100%" height="100%" viewBox="0 0 810 810" version="1.1" xmlns="http://www.w3.org/2000/svg" xmlns:xlink="http://www.w3.org/1999/xlink" xml:space="preserve" xmlns:serif="http://www.serif.com/" style="fill-rule:evenodd;clip-rule:evenodd;stroke-linejoin:round;stroke-miterlimit:1.41421;">
    <g transform="matrix(0.75,0,0,0.75,0,-34.5092)">
        <g id="logo" transform="matrix(0.9,0,0,0.9,0,46.0123)">
            <rect x="0" y="0" width="1200" height="1200" style="fill:none;"/>
            <clipPath id="_clip1">
                <rect x="0" y="0" width="1200" height="1200"/>
            </clipPath>
            <g clip-path="url(#_clip1)">
                <g transform="matrix(1.29365,0,0,1.29365,-295.238,-209.524)">
                    <rect x="228.221" y="161.963" width="927.607" height="927.607" style="fill:white;fill-opacity:0;stroke:black;stroke-width:23.86px;"/>
                </g>
                <g transform="matrix(1.76945,0,0,1.76945,-397.332,-298.588)">
                    <path d="M332.108,722.858L335.808,722.858L340.433,736.774L345.1,722.858L348.798,722.858L352.145,742.81L348.473,742.81L346.333,730.21L342.095,742.81L338.748,742.81L334.547,730.21L332.356,742.81L328.654,742.81L332.108,722.858Z" style="fill-rule:nonzero;"/>
                    <path d="M369.028,722.858L372.88,722.858L380.554,742.81L376.607,742.81L375.046,738.7L366.905,738.7L365.281,742.81L361.334,742.81L369.028,722.858ZM370.978,728.148L368.301,734.997L373.639,734.997L370.978,728.148Z" style="fill-rule:nonzero;"/>
                    <path d="M391.248,722.858L395.1,722.858L395.1,730.386L401.76,730.386L401.76,722.858L405.599,722.858L405.599,742.81L401.76,742.81L401.76,734.062L395.1,734.062L395.1,742.81L391.248,742.81L391.248,722.858Z" style="fill-rule:nonzero;"/>
                    <path d="M424.014,722.858L427.866,722.858L435.54,742.81L431.593,742.81L430.032,738.7L421.89,738.7L420.267,742.81L416.32,742.81L424.014,722.858ZM425.964,728.148L423.287,734.997L428.625,734.997L425.964,728.148Z" style="fill-rule:nonzero;"/>
                    <path d="M444.736,722.858L448.64,722.858L453.66,737.032L458.753,722.858L462.653,722.858L455.464,742.81L451.802,742.81L444.736,722.858Z" style="fill-rule:nonzero;"/>
                    <path d="M473.483,722.858L484.375,722.858L484.375,726.575L477.254,726.575L477.254,730.182L484.375,730.182L484.375,733.831L477.254,733.831L477.254,739.08L484.375,739.08L484.375,742.81L473.483,742.81L473.483,722.858Z" style="fill-rule:nonzero;"/>
                    <path d="M495.7,722.858L506.591,722.858L506.591,726.575L499.471,726.575L499.471,730.182L506.591,730.182L506.591,733.831L499.471,733.831L499.471,739.08L506.591,739.08L506.591,742.81L495.7,742.81L495.7,722.858Z" style="fill-rule:nonzero;"/>
                    <path d="M518.161,722.858L522.185,722.858C524.388,722.858 525.958,723.055 526.892,723.448C527.827,723.842 528.579,724.495 529.148,725.408C529.717,726.321 530.002,727.402 530.002,728.65C530.002,729.961 529.688,731.057 529.059,731.939C528.431,732.821 527.484,733.487 526.218,733.94L530.944,742.81L526.793,742.81L522.306,734.36L521.959,734.36L521.959,742.81L518.161,742.81L518.161,722.858ZM521.959,730.657L523.149,730.657C524.356,730.657 525.188,730.498 525.643,730.181C526.098,729.863 526.326,729.337 526.326,728.602C526.326,728.167 526.213,727.788 525.988,727.466C525.763,727.144 525.461,726.913 525.082,726.772C524.704,726.631 524.009,726.561 523,726.561L521.959,726.561L521.959,730.657Z" style="fill-rule:nonzero;"/>
                    <path d="M557.345,722.858L568.237,722.858L568.237,726.575L561.116,726.575L561.116,730.182L568.237,730.182L568.237,733.831L561.116,733.831L561.116,739.08L568.237,739.08L568.237,742.81L557.345,742.81L557.345,722.858Z" style="fill-rule:nonzero;"/>
                    <path d="M579.549,722.858L583.346,722.858L583.346,739.189L588.88,739.189L588.88,742.81L579.549,742.81L579.549,722.858Z" style="fill-rule:nonzero;"/>
                    <path d="M599.555,722.858L610.446,722.858L610.446,726.575L603.325,726.575L603.325,730.182L610.446,730.182L610.446,733.831L603.325,733.831L603.325,739.08L610.446,739.08L610.446,742.81L599.555,742.81L599.555,722.858Z" style="fill-rule:nonzero;"/>
                    <path d="M640.096,726.365L637.439,728.897C635.633,726.987 633.6,726.032 631.341,726.032C629.435,726.032 627.829,726.684 626.524,727.987C625.218,729.29 624.566,730.897 624.566,732.807C624.566,734.137 624.855,735.319 625.433,736.351C626.011,737.382 626.829,738.192 627.886,738.781C628.943,739.369 630.117,739.663 631.409,739.663C632.511,739.663 633.519,739.457 634.431,739.045C635.343,738.634 636.346,737.885 637.439,736.799L640.014,739.485C638.54,740.924 637.148,741.921 635.837,742.477C634.526,743.034 633.029,743.312 631.347,743.312C628.246,743.312 625.707,742.328 623.731,740.362C621.756,738.395 620.768,735.875 620.768,732.8C620.768,730.811 621.218,729.043 622.117,727.497C623.017,725.951 624.306,724.707 625.983,723.767C627.66,722.827 629.466,722.356 631.401,722.356C633.047,722.356 634.632,722.704 636.155,723.399C637.679,724.094 638.992,725.083 640.096,726.365Z" style="fill-rule:nonzero;"/>
                    <path d="M649.224,722.858L660.251,722.858L660.251,726.602L656.616,726.602L656.616,742.81L652.764,742.81L652.764,726.602L649.224,726.602L649.224,722.858Z" style="fill-rule:nonzero;"/>
                    <path d="M670.884,722.858L674.908,722.858C677.112,722.858 678.681,723.055 679.616,723.448C680.551,723.842 681.303,724.495 681.872,725.408C682.441,726.321 682.725,727.402 682.725,728.65C682.725,729.961 682.411,731.057 681.783,731.939C681.154,732.821 680.207,733.487 678.941,733.94L683.668,742.81L679.516,742.81L675.03,734.36L674.682,734.36L674.682,742.81L670.884,742.81L670.884,722.858ZM674.682,730.657L675.872,730.657C677.08,730.657 677.912,730.498 678.367,730.181C678.822,729.863 679.05,729.337 679.05,728.602C679.05,728.167 678.937,727.788 678.712,727.466C678.486,727.144 678.184,726.913 677.806,726.772C677.427,726.631 676.733,726.561 675.723,726.561L674.682,726.561L674.682,730.657Z" style="fill-rule:nonzero;"/>
                    <rect x="694.241" y="722.858" width="3.771" height="19.952" style="fill-rule:nonzero;"/>
                    <path d="M728.393,726.365L725.737,728.897C723.93,726.987 721.897,726.032 719.639,726.032C717.733,726.032 716.127,726.684 714.821,727.987C713.516,729.29 712.863,730.897 712.863,732.807C712.863,734.137 713.152,735.319 713.73,736.351C714.309,737.382 715.126,738.192 716.183,738.781C717.24,739.369 718.415,739.663 719.707,739.663C720.809,739.663 721.816,739.457 722.728,739.045C723.641,738.634 724.644,737.885 725.737,736.799L728.312,739.485C726.838,740.924 725.445,741.921 724.134,742.477C722.823,743.034 721.327,743.312 719.645,743.312C716.543,743.312 714.005,742.328 712.029,740.362C710.053,738.395 709.065,735.875 709.065,732.8C709.065,730.811 709.515,729.043 710.415,727.497C711.315,725.951 712.603,724.707 714.28,723.767C715.958,722.827 717.764,722.356 719.699,722.356C721.345,722.356 722.929,722.704 724.453,723.399C725.977,724.094 727.29,725.083 728.393,726.365Z" style="fill-rule:nonzero;"/>
                    <path d="M745.575,722.858L749.426,722.858L757.1,742.81L753.153,742.81L751.592,738.7L743.451,738.7L741.828,742.81L737.881,742.81L745.575,722.858ZM747.524,728.148L744.847,734.997L750.185,734.997L747.524,728.148Z" style="fill-rule:nonzero;"/>
                    <path d="M767.808,722.858L771.606,722.858L771.606,739.189L777.14,739.189L777.14,742.81L767.808,742.81L767.808,722.858Z" style="fill-rule:nonzero;"/>
                    <path d="M798.272,725.571L795.459,728.053C794.471,726.679 793.466,725.991 792.442,725.991C791.944,725.991 791.537,726.125 791.219,726.392C790.902,726.658 790.744,726.959 790.744,727.293C790.744,727.628 790.857,727.945 791.084,728.243C791.392,728.641 792.32,729.495 793.869,730.806C795.318,732.018 796.197,732.782 796.505,733.099C797.275,733.876 797.82,734.62 798.142,735.33C798.463,736.04 798.624,736.815 798.624,737.656C798.624,739.293 798.058,740.644 796.927,741.711C795.796,742.778 794.32,743.312 792.501,743.312C791.079,743.312 789.842,742.964 788.787,742.267C787.732,741.571 786.829,740.477 786.078,738.985L789.27,737.059C790.23,738.822 791.335,739.704 792.585,739.704C793.237,739.704 793.785,739.514 794.229,739.134C794.672,738.755 794.894,738.316 794.894,737.819C794.894,737.367 794.727,736.914 794.392,736.462C794.056,736.01 793.318,735.318 792.177,734.387C790.003,732.615 788.599,731.247 787.965,730.284C787.331,729.321 787.014,728.36 787.014,727.402C787.014,726.019 787.541,724.832 788.596,723.842C789.651,722.851 790.952,722.356 792.5,722.356C793.496,722.356 794.444,722.587 795.345,723.048C796.246,723.509 797.221,724.35 798.272,725.571Z" style="fill-rule:nonzero;"/>
                </g>
                <g transform="matrix(3.21186,0,0,3.21186,63.4234,-1642.16)">
                    <path d="M104.365,758.723L53.714,585.415L52.673,585.415C53.541,603.645 53.975,615.19 53.975,620.051L53.975,758.723L41.735,758.723L41.735,568.358L60.615,568.358L103.324,713.931C107.143,726.778 109.617,737.716 110.746,746.744L111.787,746.744C112.655,740.32 115.346,729.469 119.86,714.191L162.178,568.358L181.709,568.358L181.709,758.723L168.949,758.723L168.949,621.093C168.949,615.711 169.383,603.905 170.251,585.676L169.209,585.676L118.819,758.723L104.365,758.723Z" style="fill-rule:nonzero;"/>
                    <path d="M292.386,758.723L223.376,758.723L223.376,568.358L292.386,568.358L292.386,580.598L236.136,580.598L236.136,652.863L289.261,652.863L289.261,665.103L236.136,665.103L236.136,746.483L292.386,746.483L292.386,758.723Z" style="fill-rule:nonzero;"/>
                </g>
                <g transform="matrix(2.20097,0,0,1.62449,-648.151,-345.436)">
                    <rect x="384.204" y="741.423" width="365.774" height="19.772"/>
                </g>
            </g>
        </g>
    </g>
</svg>
